PathFileType	4	(X/Y/Z)	/Users/mathieubourgeois/Desktop/Analyse/Traitement/Sujet_04/Data/Transformed_Sujet_04_velo_100.trc
DataRate	CameraRate	NumFrames	NumMarkers	Units	OrigDataRate	OrigDataStartFrame	OrigNumFrames
120.000000	120.000000	5	36	mm	120.000000	243	1948
Frame#	Time	RFHD			RANE			STRN			LANI			LKNE			T10			RHUM			RWRB			C7			LFWT			LTOE			RTOE			LWRA			LBWT			RBWT			RFWT			LKNI			RKNI			RKNE			LANE			RANI			LHEE			RHEE			LHUM			LRAD			RRAD			RWRA			LWRB			LFHD			LBHD			RBHD			RSHO			LSHO			CLAV			LCAR			RCAR			
		X1	Y1	Z1	X2	Y2	Z2	X3	Y3	Z3	X4	Y4	Z4	X5	Y5	Z5	X6	Y6	Z6	X7	Y7	Z7	X8	Y8	Z8	X9	Y9	Z9	X10	Y10	Z10	X11	Y11	Z11	X12	Y12	Z12	X13	Y13	Z13	X14	Y14	Z14	X15	Y15	Z15	X16	Y16	Z16	X17	Y17	Z17	X18	Y18	Z18	X19	Y19	Z19	X20	Y20	Z20	X21	Y21	Z21	X22	Y22	Z22	X23	Y23	Z23	X24	Y24	Z24	X25	Y25	Z25	X26	Y26	Z26	X27	Y27	Z27	X28	Y28	Z28	X29	Y29	Z29	X30	Y30	Z30	X31	Y31	Z31	X32	Y32	Z32	X33	Y33	Z33	X34	Y34	Z34	X35	Y35	Z35	X36	Y36	Z36	

244	2.025	302.8475646972656	1514.583740234375	72.04494476318354	-122.1043548583985	515.001220703125	151.2210540771484	-57.77690124511719	1215.158813476562	-17.55979347229012	-287.4089965820312	351.77880859375	-131.508773803711	-81.86877441406247	736.2597045898438	-235.3488464355469	-192.5973052978516	1446.347778320312	-29.84402275085461	83.61190795898435	1070.171997070312	188.6528930664062	313.3245544433594	907.2221069335938	227.8563232421875	66.63590240478516	1507.628784179688	1.025193572044288	-234.9367065429687	1160.2080078125	-162.9924468994141	-178.61474609375	183.3891143798828	-162.8125152587891	94.2096481323242	450.0111999511719	73.2364044189453	324.3926391601562	942.3955688476562	-210.5611419677735	-403.3789672851562	1263.53466796875	-100.9019012451173	-413.9685668945312	1266.103759765625	32.04221343994128	-255.6074371337891	1203.6298828125	121.2299270629882	-73.94873809814452	691.1442260742188	-121.1610641479493	69.77426910400391	902.8779907226562	43.67985153198237	67.60701751708983	941.7931518554688	164.7407226562499	-327.2456665039062	356.8135375976562	-223.6003112792969	-106.2925338745117	519.3681030273438	57.40769577026363	-378.5953674316406	360.5375061035156	-168.917953491211	-176.8260040283203	500.0420532226562	111.7809906005859	85.50259399414065	1084.820434570312	-241.8824310302735	126.8216247558594	1107.837158203125	-298.9973754882813	125.8897628784179	1089.255126953125	242.5012512207031	322.3706970214844	916.8450317382812	154.9684143066406	284.3139953613282	890.1154174804688	-259.2849426269531	300.2868041992188	1511.08447265625	-60.12330627441412	153.0260314941406	1585.757568359375	-46.63406753540047	160.6466217041016	1579.547485351562	92.84759521484366	76.08570098876952	1418.34033203125	161.6878204345702	100.657112121582	1421.161010742188	-171.9826965332032	68.22842407226562	1333.9052734375	-11.61588001251228	398.2245178222657	918.115478515625	-294.0120239257812	402.3181762695312	933.12939453125	236.1021881103516	
245	2.033333333333333	302.3250732421875	1514.590698242188	71.23342895507807	-113.4541091918945	499.6642761230469	151.7203369140625	-58.65307998657227	1215.027465820312	-18.11922836303719	-293.1184997558594	366.7188720703125	-132.1648559570313	-74.81884002685544	743.1093139648438	-235.2602844238282	-193.1922607421875	1446.115356445312	-29.34444046020519	83.58452606201169	1070.241943359375	188.1502380371093	310.8108825683594	908.4176025390625	229.5596466064453	66.15902709960938	1507.531127929688	0.3369295895098798	-236.0644989013672	1160.557983398438	-162.4765625000001	-189.6115570068359	195.4114074707031	-162.3904571533203	103.7483978271484	437.3363037109375	72.73211669921874	324.2007751464844	942.4841918945312	-210.6880798339844	-404.3577575683594	1263.291137695312	-99.62886047363293	-414.4893188476562	1265.337036132812	33.20433807373034	-255.4994812011719	1202.855590820312	121.9819869995116	-71.14475250244139	698.8869018554688	-120.7001876831055	66.6568603515625	893.0235595703125	42.05141448974604	62.93877792358396	932.649169921875	163.2689514160156	-332.9205932617188	372.7814025878906	-224.1076354980469	-98.67007446289064	504.5770874023438	58.53508377075191	-384.3788757324219	378.1476135253906	-169.5884552001954	-168.0548095703125	483.9086303710938	112.7519226074218	85.19306182861331	1084.721313476562	-241.9870758056641	126.4481430053711	1107.726196289062	-299.1478576660157	125.943603515625	1089.330932617188	241.8616027832031	323.7086486816406	916.9044799804688	151.6308288574218	284.1604919433594	890.15869140625	-259.3709411621094	299.787841796875	1511.039672851562	-60.89920806884771	152.4568939208984	1585.550903320312	-47.54188537597664	159.2054138183594	1578.930419921875	92.25806427001945	76.12362670898436	1418.338134765625	160.8617858886718	99.80036926269533	1421.165893554688	-172.6342163085938	67.60725402832031	1333.68994140625	-12.39361286163337	398.0441894531251	918.185302734375	-294.1487731933594	402.1977233886718	933.3890380859375	235.9080200195312	
246	2.041666666666667	301.7330017089844	1514.57080078125	70.25429534912104	-105.7087020874024	483.8204650878906	152.0959167480468	-59.34788131713867	1214.814331054688	-18.64601135253914	-298.0623168945312	382.4347534179688	-132.4938964843751	-67.20260620117185	750.619873046875	-235.2774200439454	-193.8333587646484	1445.743408203125	-28.82789039611828	83.50968170166013	1070.271118164062	187.3848114013671	313.8053283691406	907.617431640625	226.6578826904297	65.65324401855469	1507.381103515625	-0.5819072127343067	-237.1864929199218	1160.779907226562	-162.0045166015626	-199.1516723632812	208.3627014160156	-162.0541534423828	112.1827163696289	423.2898864746094	72.15957641601561	323.9781799316406	942.6109619140625	-210.8121185302735	-405.274658203125	1262.900634765625	-98.31151580810558	-414.9654541015625	1264.349853515625	34.47021102905261	-255.3751373291016	1201.725952148438	122.6358489990233	-63.8540687561035	706.298583984375	-120.5493240356446	62.13796234130859	880.7379760742188	43.76037597656245	53.56328201293943	923.2415161132812	164.4622650146484	-337.1783447265625	389.4785461425781	-224.6436157226563	-91.47824096679689	489.1508483886719	58.76801300048824	-387.7167053222656	396.4861450195312	-170.3361206054688	-160.7875061035156	467.609375	114.0483016967773	84.86312103271487	1084.614868164062	-242.1757049560547	126.0652847290039	1107.612426757812	-299.3809204101563	125.876220703125	1089.418579101562	241.2065887451172	326.7683410644531	917.0304565429688	148.4223327636718	283.9815063476563	890.232421875	-259.4698486328125	299.2538452148438	1511	-61.85762405395513	151.8214569091797	1585.350341796875	-48.57614898681648	159.3466796875	1579.21240234375	90.90666961669913	76.09591674804686	1418.353881835938	159.8636016845702	98.8433303833008	1421.197509765625	-173.4191284179688	66.91091156005859	1333.408325195312	-13.27553462982185	397.8398742675782	918.2701416015625	-294.2431945800781	402.1051635742187	933.5045776367188	235.688720703125	
247	2.05	301.0955200195312	1514.59912109375	69.14366912841791	-99.07959747314455	467.5984802246094	152.2733306884765	-60.13249588012695	1214.44677734375	-19.41519546508797	-294.6722106933594	400.1108093261719	-135.9535369873047	-59.06314468383786	758.7015380859375	-235.3976745605469	-194.5621643066406	1445.307373046875	-28.32999992370617	83.33949279785153	1070.287719726562	186.8124084472656	313.0474548339844	908.42236328125	227.1482238769531	65.07078552246094	1507.21630859375	-1.575268864631737	-238.2694396972656	1160.880493164062	-161.4901275634767	-207.2179870605468	222.2845001220703	-161.6047821044922	119.3201370239258	408.1531677246094	71.61593627929686	323.7578430175781	942.7518920898438	-210.9615936279297	-406.1349487304688	1262.392211914062	-97.02135467529308	-415.41357421875	1263.224853515625	35.78560638427722	-255.2176361083985	1200.102294921875	123.3789520263671	-55.9115753173828	713.8505859375	-120.5457763671875	58.33074188232421	870.3187255859375	41.43295288085933	51.72018814086912	911.1674194335938	162.3231964111328	-340.0667114257812	406.928466796875	-225.2319488525391	-81.06942749023438	472.3765563964844	57.05571365356442	-390.6002807617188	415.3038330078125	-171.0887451171876	-153.7030029296875	450.8787536621094	114.25927734375	84.45977783203128	1084.510498046875	-242.5288085937501	125.5855941772461	1107.474243164062	-299.7548217773438	125.7398681640625	1089.474365234375	240.5714874267578	326.7472229003906	916.841552734375	148.1004028320312	283.7916870117188	890.3145141601562	-259.5563049316406	298.6657409667969	1510.991455078125	-62.98258590698248	151.12744140625	1585.1552734375	-49.72729492187508	158.6492156982422	1579.051391601562	89.79402923583976	76.04461669921874	1418.367431640625	158.8407745361327	97.74775695800784	1421.26806640625	-174.3359375000001	66.18734741210938	1333.117919921875	-14.18548202514656	397.6959228515626	918.3622436523438	-294.2947998046875	401.9463500976562	933.5948486328125	235.53173828125	
248	2.058333333333333	300.4678955078125	1514.66259765625	67.89306640624994	-93.63079833984376	451.1920776367188	152.5540008544922	-60.6700553894043	1214.047119140625	-20.10055541992196	-299.3493041992188	415.82373046875	-135.4901733398438	-50.5041809082031	767.2990112304688	-235.5943908691407	-195.2964782714844	1444.799560546875	-27.90493011474621	83.17592620849607	1070.212890625	186.057388305664	312.9109497070312	908.437744140625	226.942626953125	64.41475677490234	1507.038696289062	-2.676990509033288	-239.3518676757812	1160.8798828125	-160.9864807128907	-213.6454772949218	236.9514312744141	-161.1333312988282	125.0774154663086	392.0502014160156	71.05885314941405	323.5372619628906	942.88671875	-211.1081848144532	-406.8968811035156	1261.763916015625	-95.84033966064466	-416.1246032714844	1261.7734375	37.76478576660143	-254.9979553222657	1198.147827148438	124.1084213256835	-48.23251342773436	722.5637817382812	-120.4236221313477	51.88483047485351	852.711181640625	40.08856964111324	49.01783370971678	896.69775390625	159.7228698730468	-341.4529724121094	424.4410400390625	-225.7990264892579	-75.89612579345703	456.0360717773438	57.04788208007809	-392.1584167480469	434.4569091796875	-171.7822418212891	-148.2121276855469	434.1004028320312	114.5067596435546	84.0124435424805	1084.306030273438	-242.9977569580079	125.1777801513672	1107.262817382812	-300.1737060546876	125.6055221557617	1089.429931640625	239.9556732177734	326.7158813476562	916.6110229492188	147.9625396728515	283.6612243652344	890.38330078125	-259.6636352539062	298.02734375	1511.022216796875	-64.21824645996099	150.3825531005859	1584.964721679688	-50.9857482910157	157.1793060302734	1578.465209960938	88.81234741210929	75.95007324218749	1418.357421875	157.684600830078	95.86223602294925	1421.581787109375	-174.6513061523438	65.48760223388672	1332.844848632812	-15.26525211334236	397.6188964843751	918.4194946289062	-294.3158874511719	401.8103332519531	933.630126953125	235.4587554931641	
